<svg width="139" height="93" viewBox="0 0 139 93" fill="none" xmlns="http://www.w3.org/2000/svg">
<path d="M38.1 14.1C26.9 15.1 17.4 17.4 14 19.9C10.8 22.2 10.4 27.1 12.4 37.1C16 54.5 25.9 67.7 40.6 74.7C47.3 77.9 49.3 78.4 57.9 78.8C74.1 79.6 84.5 76 95.5 66C100.3 61.6 103 60 108.6 58.2C120.7 54.4 127.2 48.2 128.6 39.4C129.3 34.8 127.3 29.8 124.1 28C123 27.5 119.9 27 117.1 27C112.5 27 112.1 26.8 111.8 24.3C111.6 22.9 110.4 20.9 109 19.9C101.4 14.3 67.2 11.5 38.1 14.1ZM94 22C101.8 23.5 103.5 24.6 98.9 25.5C94 26.4 93 26.4 77 25C65.8 24.1 58.5 24.1 44.7 25C27.7 26.1 20.4 25.8 21.5 24C21.8 23.6 25.7 22.7 30.2 22.1C34.8 21.5 39.6 20.8 41 20.6C46.1 19.7 87.7 20.9 94 22ZM32 33.6C51.1 36.1 94.6 34.8 103.3 31.4C105.2 30.7 105.2 30.8 102.8 40.5C97.6 61.4 76.2 75.6 55.3 72.2C38.3 69.4 24.2 56.6 20.2 40.5C17.8 30.7 17.8 30.7 19.7 31.4C20.7 31.8 26.2 32.8 32 33.6ZM120.1 34C125.4 36.9 119.4 46.7 110.1 50.6C105.9 52.4 105.4 52 107.3 48.3C108.1 46.8 109.3 42.9 110 39.8C111.1 34.8 111.6 34.1 113.9 33.7C115.3 33.5 116.9 33.2 117.3 33.1C117.8 33.1 119 33.5 120.1 34Z" fill="black"/>
</svg>
