<svg fill="none" height="93" viewBox="0 0 139 93" width="139" xmlns="http://www.w3.org/2000/svg"><path d="m38.1 14.1c-11.2 1-20.7 3.3-24.1 5.8-3.2 2.3-3.6 7.2-1.6 17.2 3.6 17.4 13.5 30.6 28.2 37.6 6.7 3.2 8.7 3.7 17.3 4.1 16.2.8 26.6-2.8 37.6-12.8 4.8-4.4 7.5-6 13.1-7.8 12.1-3.8 18.6-10 20-18.8.7-4.6-1.3-9.6-4.5-11.4-1.1-.5-4.2-1-7-1-4.6 0-5-.2-5.3-2.7-.2-1.4-1.4-3.4-2.8-4.4-7.6-5.6-41.8-8.4-70.9-5.8zm55.9 7.9c7.8 1.5 9.5 2.6 4.9 3.5-4.9.9-5.9.9-21.9-.5-11.2-.9-18.5-.9-32.3 0-17 1.1-24.3.8-23.2-1 .3-.4 4.2-1.3 8.7-1.9 4.6-.6 9.4-1.3 10.8-1.5 5.1-.9 46.7.3 53 1.4zm-62 11.6c19.1 2.5 62.6 1.2 71.3-2.2 1.9-.7 1.9-.6-.5 9.1-5.2 20.9-26.6 35.1-47.5 31.7-17-2.8-31.1-15.6-35.1-31.7-2.4-9.8-2.4-9.8-.5-9.1 1 .4 6.5 1.4 12.3 2.2zm88.1.4c5.3 2.9-.7 12.7-10 16.6-4.2 1.8-4.7 1.4-2.8-2.3.8-1.5 2-5.4 2.7-8.5 1.1-5 1.6-5.7 3.9-6.1 1.4-.2 3-.5 3.4-.6.5 0 1.7.4 2.8.9z" fill="#000"/></svg>