<svg fill="none" height="24" viewBox="0 0 24 24" width="24" xmlns="http://www.w3.org/2000/svg"><path d="m24 12.0019c0 6.6283-5.3735 11.9981-12.001 11.9981-6.6266 0-11.999-5.3698-11.999-11.9981 0-6.62678 5.3724-12.0019 11.999-12.0019 6.6275 0 12.001 5.37512 12.001 12.0019z" fill="#888f91"/><g fill="#212d31"><path clip-rule="evenodd" d="m13.4153 16.1311c-.0693.6449-.4454 1.0674-1.0138 1.3242-.4782.2168-.9844.3097-1.5109.2897-.7413-.0328-1.46093-.1494-2.08556-.5883-1.16765-.8235-1.05828-2.3807.21305-3.0183.75149-.3771 1.56561-.4827 2.38621-.4426.8888.0436 2.1056 1.5573 2.011 2.4353zm-3.83434-5.8671c-.57651-.78125-.81783-1.67026-.71577-2.6374.06919-.65576.4153-1.12748 1.04638-1.33693.63203-.21131 1.18593-.03472 1.63763.44804.6638.70486.8988 1.57738.958 2.33519.0109 1.0419-.3179 1.561-1.0319 1.8178-.6985.2531-1.409.0329-1.89434-.6267zm3.96814 3.0148c-.3443-.3116-.7286-.5813-1.0847-.8836-.4545-.386-.501-.8123-.1102-1.2548.2186-.2497.4938-.4499.7377-.6759 1.0074-.93438 1.184-2.31509.4226-3.44095-.1711-.2531-.3989-.46441-.6776-.78857.7715.10379 1.3753-.06188 1.9262-.56473-1.2915 0-2.5218-.00905-3.7513.00372-.6403.00917-1.25326.1658-1.83523.43911-1.69581.79762-2.32229 2.7903-1.31324 4.22582.59015.8415 1.4463 1.131 2.43797 1.1164.1166-.0018.4073-.1494.3033.1877-.182.5848.0174 1.0674.4363 1.6065-.2287 0-.346-.0127-.4609 0-1.11461.1257-2.22225.277-3.14028 1.0182-1.2877 1.0383-1.18663 2.7287.22048 3.5975 1.52369.9381 4.4645.6977 5.8224-.4772 1.3935-1.204 1.4245-2.8671.0665-4.1092z" fill-rule="evenodd"/><path d="m16.5282 9.65935v-1.52468h-1.5355v-1.05084h1.5355v-1.52269h1.0227v1.52269h1.5391v1.05084h-1.5391v1.52468z"/></g></svg>