<?xml version="1.0" standalone="no"?>
<!DOCTYPE svg PUBLIC "-//W3C//DTD SVG 20010904//EN"
 "http://www.w3.org/TR/2001/REC-SVG-20010904/DTD/svg10.dtd">
<svg version="1.0" xmlns="http://www.w3.org/2000/svg"
 width="118.000000pt" height="67.000000pt" viewBox="0 0 118.000000 67.000000"
 preserveAspectRatio="xMidYMid meet">

<g transform="translate(0.000000,67.000000) scale(0.100000,-0.100000)"
fill="#000000" stroke="none">
<path d="M271 659 c-112 -10 -207 -33 -241 -58 -32 -23 -36 -72 -16 -172 36
-174 135 -306 282 -376 67 -32 87 -37 173 -41 162 -8 266 28 376 128 48 44 75
60 131 78 121 38 186 100 200 188 7 46 -13 96 -45 114 -11 5 -42 10 -70 10
-46 0 -50 2 -53 27 -2 14 -14 34 -28 44 -76 56 -418 84 -709 58z m559 -79 c78
-15 95 -26 49 -35 -49 -9 -59 -9 -219 5 -112 9 -185 9 -323 0 -170 -11 -243
-8 -232 10 3 4 42 13 87 19 46 6 94 13 108 15 51 9 467 -3 530 -14z m-620
-116 c191 -25 626 -12 713 22 19 7 19 6 -5 -91 -52 -209 -266 -351 -475 -317
-170 28 -311 156 -351 317 -24 98 -24 98 -5 91 10 -4 65 -14 123 -22z m881 -4
c53 -29 -7 -127 -100 -166 -42 -18 -47 -14 -28 23 8 15 20 54 27 85 11 50 16
57 39 61 14 2 30 5 34 6 5 0 17 -4 28 -9z"/>
</g>
</svg>
